<?xml version="1.0" encoding="UTF-8"?>
<svg id="Layer_2" data-name="Layer 2" xmlns="http://www.w3.org/2000/svg" viewBox="0 0 1704.01 218.11">
  <defs>
    <style>
      .cls-1, .cls-2 {
        fill: #007871;
      }

      .cls-2 {
        fill-rule: evenodd;
      }
    </style>
  </defs>
  <g id="Text">
    <g>
      <polygon class="cls-1" points="487 48.09 452.47 48.09 387.26 124.65 387.26 48.09 359.73 48.09 359.73 215.93 387.26 215.93 387.26 140.83 452.23 215.93 488.21 215.93 414.07 132.13 487 48.09"/>
      <rect class="cls-1" x="505.31" y="82.87" width="27.53" height="133.07"/>
      <path class="cls-1" d="M519.32,29.98c-4.99,0-9.18,1.69-12.56,5.07-3.38,3.38-5.07,7.57-5.07,12.56s1.69,9.18,5.07,12.56c3.38,3.38,7.57,5.07,12.56,5.07s8.94-1.69,12.32-5.07c3.38-3.38,5.07-7.57,5.07-12.56s-1.69-9.18-5.07-12.56c-3.38-3.38-7.49-5.07-12.32-5.07Z"/>
      <path class="cls-1" d="M593.86,48.09h-27.77v34.78h-15.7v22.46h15.7v73.66c0,13.04,3.3,22.46,9.9,28.26,6.6,5.8,16.1,8.69,28.5,8.69h21.74v-22.94h-16.91c-5.64,0-9.66-1.05-12.07-3.14-2.25-2.25-3.38-5.88-3.38-10.87v-73.66h32.36v-22.46h-32.36v-34.78Z"/>
      <path class="cls-1" d="M700.38,103.88c8.05,0,14.73,1.85,20.04,5.55s9.18,8.85,11.59,15.46h29.7c-3.7-14.17-10.87-25.04-21.49-32.6-10.46-7.73-23.75-11.59-39.85-11.59-12.72,0-23.99,2.82-33.81,8.45-9.82,5.64-17.55,13.68-23.18,24.15-5.47,10.3-8.21,22.3-8.21,35.98s2.74,25.76,8.21,36.22c5.64,10.3,13.36,18.35,23.18,24.15,9.82,5.64,21.09,8.45,33.81,8.45,15.78,0,28.98-3.94,39.61-11.83,10.63-8.05,17.87-18.84,21.74-32.36h-29.7c-5.15,14.01-15.7,21.01-31.64,21.01-11.27,0-20.29-4.02-27.05-12.08-6.6-8.05-9.9-19.24-9.9-33.57s3.3-25.44,9.9-33.33c6.76-8.05,15.78-12.08,27.05-12.08Z"/>
      <path class="cls-1" d="M877.79,87.22c-7.89-4.35-16.91-6.52-27.05-6.52-8.53,0-16.42,1.53-23.67,4.59-7.08,3.06-12.96,7.41-17.63,13.04v-61.1h-27.53v178.71h27.53v-74.38c0-11.91,2.98-21.01,8.94-27.29,6.12-6.44,14.33-9.66,24.63-9.66s18.43,3.22,24.39,9.66c5.96,6.28,8.94,15.38,8.94,27.29v74.38h27.29v-78.49c0-12.08-2.33-22.38-7-30.91-4.51-8.53-10.79-14.97-18.84-19.32Z"/>
      <path class="cls-1" d="M1022.31,88.91c-9.82-5.47-21.01-8.21-33.57-8.21s-24.63,2.82-34.78,8.45c-9.98,5.64-17.79,13.68-23.43,24.15-5.47,10.3-8.21,22.3-8.21,35.98s2.82,25.76,8.45,36.22c5.8,10.3,13.68,18.35,23.67,24.15,10.14,5.64,21.57,8.45,34.29,8.45,15.62,0,28.66-3.86,39.12-11.59,10.63-7.89,17.95-17.95,21.98-30.19h-29.7c-6.12,12.4-16.58,18.6-31.4,18.6-10.3,0-19-3.22-26.08-9.66s-11.03-14.97-11.83-25.6h101.67c.64-4.03.97-8.53.97-13.52,0-12.88-2.74-24.23-8.21-34.05-5.47-9.98-13.12-17.71-22.94-23.18ZM951.06,137.45c1.29-10.3,5.31-18.43,12.07-24.39,6.76-6.12,14.89-9.18,24.39-9.18,10.47,0,19.24,3.06,26.32,9.18,7.08,6.12,10.71,14.25,10.87,24.39h-73.66Z"/>
      <path class="cls-1" d="M1168.46,87.22c-8.21-4.35-17.55-6.52-28.01-6.52-7.89,0-15.38,1.53-22.46,4.59-6.92,3.06-12.64,7.33-17.15,12.8v-15.21h-27.53v133.07h27.53v-74.38c0-11.91,2.98-21.01,8.94-27.29,6.12-6.44,14.33-9.66,24.63-9.66s18.43,3.22,24.39,9.66c5.96,6.28,8.94,15.38,8.94,27.29v74.38h27.29v-78.49c0-12.08-2.33-22.38-7-30.91-4.67-8.53-11.19-14.97-19.56-19.32Z"/>
      <path class="cls-1" d="M1308.83,54.85c-8.85-4.51-19.72-6.76-32.6-6.76h-57.96v167.84h27.53v-68.1h30.43c13.85,0,25.2-2.33,34.05-7,8.85-4.83,15.29-11.03,19.32-18.6,4.02-7.57,6.04-15.62,6.04-24.15,0-9.34-2.25-17.79-6.76-25.36-4.35-7.57-11.03-13.52-20.04-17.87ZM1299.66,118.37c-5.15,4.67-12.96,7-23.43,7h-30.43v-54.82h30.43c20.77,0,31.15,9.18,31.15,27.53,0,8.69-2.58,15.46-7.73,20.29Z"/>
      <path class="cls-1" d="M1454.39,102.19c-4.67-6.12-10.95-11.19-18.84-15.21-7.73-4.19-16.82-6.28-27.29-6.28-11.59,0-22.22,2.9-31.88,8.69-9.5,5.64-17.07,13.6-22.7,23.91-5.47,10.3-8.21,22.14-8.21,35.5s2.74,25.36,8.21,35.98c5.64,10.47,13.2,18.68,22.7,24.63,9.5,5.8,19.96,8.69,31.4,8.69,10.3,0,19.48-2.09,27.53-6.28,8.05-4.19,14.41-9.42,19.08-15.7v19.8h27.77V82.87h-27.77v19.32ZM1448.6,173.43c-3.7,6.76-8.61,11.91-14.73,15.46-6.12,3.54-12.72,5.31-19.8,5.31s-13.52-1.77-19.8-5.31c-6.12-3.7-11.11-9.02-14.97-15.94-3.7-6.92-5.55-14.97-5.55-24.15s1.85-17.07,5.55-23.67c3.86-6.76,8.85-11.83,14.97-15.21,6.12-3.54,12.72-5.31,19.8-5.31s13.68,1.77,19.8,5.31c6.12,3.54,11.03,8.69,14.73,15.46,3.86,6.76,5.8,14.73,5.8,23.91s-1.93,17.23-5.8,24.15Z"/>
      <path class="cls-1" d="M1532.11,102.19v-19.32h-27.53v133.07h27.53v-70.03c0-13.52,2.74-23.02,8.21-28.5,5.64-5.47,13.85-8.21,24.63-8.21h7v-28.5c-9.18,0-17.15,1.93-23.91,5.8-6.6,3.7-11.91,8.94-15.94,15.7Z"/>
      <polygon class="cls-1" points="1704.01 82.87 1665.85 82.87 1617.55 141.07 1617.55 37.22 1590.02 37.22 1590.02 215.93 1617.55 215.93 1617.55 158.7 1666.82 215.93 1704.01 215.93 1642.67 149.52 1704.01 82.87"/>
    </g>
    <g>
      <path class="cls-2" d="M110.8,45.89c6.03-14.55,9.13-30.14,9.13-45.89h-23.98c0,52.98-42.95,95.93-95.93,95.93H.02s-.01,0-.02,0v23.98c52.98,0,95.93,42.95,95.93,95.93h23.98c0-15.75-3.1-31.34-9.13-45.89-6.03-14.55-14.86-27.77-25.99-38.9-9.49-9.49-20.49-17.29-32.53-23.13,12.05-5.83,23.06-13.64,32.55-23.14,11.13-11.13,19.97-24.35,25.99-38.9Z"/>
      <path class="cls-2" d="M50.9,50.88c6.68-6.68,11.98-14.61,15.6-23.34,3.62-8.73,5.48-18.09,5.48-27.53h-24.01C47.96,26.48,26.5,47.94.02,47.94h0v24.01c9.45,0,18.8-1.86,27.53-5.48,8.73-3.62,16.66-8.92,23.34-15.6Z"/>
      <path class="cls-2" d="M50.88,164.96c-6.68-6.68-14.61-11.98-23.34-15.6-8.73-3.62-18.09-5.48-27.53-5.48v24.01h0c26.48,0,47.94,21.46,47.94,47.94h0s24.01,0,24.01,0c0-9.45-1.86-18.8-5.48-27.53-3.62-8.73-8.92-16.66-15.6-23.34Z"/>
      <rect class="cls-1" x="143.88" width="23.99" height="215.83"/>
      <path class="cls-2" d="M251.17,24.58C235.43,8.84,214.08,0,191.82,0v23.99c33.11,0,59.94,26.84,59.94,59.94s-26.84,59.94-59.94,59.94v23.99c22.26,0,43.61-8.84,59.35-24.58,15.74-15.74,24.58-37.09,24.58-59.35s-8.84-43.61-24.58-59.35Z"/>
      <path class="cls-2" d="M227.78,83.94c0-9.54-3.79-18.69-10.53-25.43-6.74-6.74-15.89-10.53-25.43-10.53v23.98c6.62,0,11.98,5.37,11.98,11.98s-5.37,11.98-11.98,11.98v23.98c9.54,0,18.69-3.79,25.43-10.53,6.74-6.74,10.53-15.89,10.53-25.43Z"/>
    </g>
  </g>
</svg>