<?xml version="1.0" encoding="UTF-8"?>
<svg id="Layer_2" data-name="Layer 2" xmlns="http://www.w3.org/2000/svg" viewBox="0 0 357.26 76.44">
  <defs>
    <style>
      .cls-1 {
        fill: #f74c25;
      }
    </style>
  </defs>
  <g id="Layer_1-2" data-name="Layer 1">
    <path class="cls-1" d="M137.49,13.28v23.53c0,1.09.11,2.08.77,2.84.66.65,1.87,1.2,3.62,1.2,5.82,0,9.77-5.03,9.77-14.78,0-11.93-4.72-16.2-10.21-16.2-3.18,0-3.95,1.2-3.95,3.39h0ZM137.49,46.33v20.47c0,2.74.66,4.27,2.63,4.49,3.73.55,4.83.77,4.83,2.19,0,1.64-1.53,1.86-3.51,1.86-2.97,0-5.05-.44-11.42-.44s-8.23.44-11.09.44c-1.76,0-2.75-.11-2.75-1.75,0-1.42.55-1.86,3.95-2.41,1.32-.22,1.98-1.54,1.98-4.05V13.93c0-3.06-1.1-3.94-2.63-4.16-2.08-.22-3.18-.44-3.18-1.97,0-.99.66-1.86,1.98-1.86,2.97,0,7.58.44,13.51.44,4.72,0,9.66-.44,14.28-.44,12.52,0,21.3,7.45,21.3,20.79,0,10.5-7.47,19.15-18.12,19.15-2.97,0-5.27-.44-6.92-.87-1.32-.44-2.42-.55-3.4-.55-1.21,0-1.43.44-1.43,1.86h0Z"/>
    <path class="cls-1" d="M176.43,66.47v-28.57c0-3.39-.77-4.16-3.3-4.71-1.87-.44-2.42-.87-2.42-1.86,0-1.32.99-1.64,4.06-2.41,4.28-1.2,8.23-2.74,11.86-4.05,1.43-.55,2.42-.99,2.75-.99.88,0,.99.65.99,2.41v39.95c0,3.72.22,4.49,3.4,5.36,1.87.55,2.42.77,2.42,2.19,0,.99-.55,1.54-2.2,1.54-3.3,0-6.7-.44-10.43-.44-4.17,0-7.58.44-10.65.44-1.43,0-2.3-.55-2.3-1.64,0-1.2.55-1.64,2.08-2.08,3.3-.77,3.73-1.09,3.73-5.14h0ZM183.68,18.53h-.11c-4.06,0-7.46-3.95-7.46-9.21s3.4-9.33,7.57-9.33c4.39,0,7.68,4.06,7.68,9.33s-3.3,9.21-7.68,9.21Z"/>
    <path class="cls-1" d="M242.91,66.8v-28.89c0-3.5-.55-4.16-2.75-4.49-2.3-.44-2.85-.65-2.85-1.75,0-1.64,1.43-1.64,5.93-2.84,4.94-1.53,7.91-2.96,9.77-3.83,1.65-.65,2.3-1.1,2.75-1.1.77,0,.99,1.32.99,2.62v4.05c.11,1.32.22,1.75.55,1.75,1.1,0,2.63-1.97,5.05-3.83,2.42-1.97,5.6-3.94,9.88-3.94s7.36,1.32,9.66,3.61c2.3,2.52,3.51,6.24,3.51,10.5v29.44c0,3.29,2.09,3.39,3.85,3.94,1.21.22,1.76.55,1.76,1.53,0,1.32-.77,1.75-2.97,1.75-1.65,0-5.49-.44-9.77-.44-4.5,0-7.03.44-9,.44-1.43,0-2.08-.44-2.08-1.86,0-.44.44-.87,1.1-1.2,1.65-.77,3.18-1.2,3.18-3.17v-28.67c0-2.08-.44-3.94-1.32-5.14-1.1-1.75-2.75-2.62-4.83-2.62s-4.28.65-5.82,1.97c-1.54,1.32-2.63,3.06-2.63,5.04v29.22c0,1.86,1.32,2.52,2.97,3.29,1.43.44,1.76.55,1.76,1.32,0,1.53-.88,1.86-1.98,1.86-1.21,0-2.97-.44-9.33-.44-7.36,0-8.23.44-10.54.44-1.32,0-2.3-.65-2.3-1.75,0-1.2.99-1.75,2.2-1.97,2.85-.33,3.3-1.64,3.3-4.81h0Z"/>
    <path class="cls-1" d="M298.95,66.47v-28.57c0-3.39-.77-4.16-3.3-4.71-1.87-.44-2.42-.87-2.42-1.86,0-1.32.99-1.64,4.06-2.41,4.28-1.2,8.23-2.74,11.86-4.05,1.43-.55,2.42-.99,2.75-.99.88,0,.99.65.99,2.41v39.95c0,3.72.22,4.49,3.4,5.36,1.87.55,2.42.77,2.42,2.19,0,.99-.55,1.54-2.2,1.54-3.3,0-6.7-.44-10.43-.44-4.17,0-7.58.44-10.65.44-1.43,0-2.31-.55-2.31-1.64,0-1.2.55-1.64,2.08-2.08,3.3-.77,3.73-1.09,3.73-5.14h.01ZM306.2,18.53h-.11c-4.06,0-7.47-3.95-7.47-9.21s3.4-9.33,7.58-9.33c4.39,0,7.68,4.06,7.68,9.33s-3.3,9.21-7.68,9.21Z"/>
    <path class="cls-1" d="M196.64,52.02v-.11c0-16.53,10.76-28.02,24.49-28.02,3.62,0,7.91.77,10.32,2.52,2.2,1.42,2.42,2.08,2.53,4.71.11,1.42.11,2.84.11,4.38,0,1.64-.11,3.29-.33,4.27-.33,2.3-2.09,2.36-3.92,2.26-2.95-.16-4.32-.69-4.81-3.81-.65-4.15-1.09-9.75-4.34-9.83-4.83-.11-9.11,7.99-9.11,19.37,0,15.21,5.49,21.12,11.42,21.12,3.62,0,5.93-2.3,7.58-5.03,1.21-2.19,1.98-4.38,3.08-4.38s1.53,1.09,1.53,1.86c0,5.48-5.05,15.1-17.24,15.1-13.06,0-21.3-9.85-21.3-24.41h0Z"/>
    <path class="cls-1" d="M318.72,52.02v-.11c0-16.53,10.76-28.02,24.49-28.02,3.62,0,7.91.77,10.32,2.52,2.2,1.42,2.42,2.08,2.53,4.71.11,1.42.11,2.84.11,4.38,0,1.64-.11,3.29-.33,4.27-.33,2.3-2.09,2.36-3.92,2.26-2.95-.16-4.32-.69-4.81-3.81-.65-4.15-1.09-9.75-4.34-9.83-4.83-.11-9.11,7.99-9.11,19.37,0,15.21,5.49,21.12,11.42,21.12,3.62,0,5.93-2.3,7.58-5.03,1.21-2.19,1.98-4.38,3.07-4.38s1.53,1.09,1.53,1.86c0,5.48-5.05,15.1-17.24,15.1-13.06,0-21.3-9.85-21.3-24.41h0Z"/>
    <path class="cls-1" d="M72.99,35.07v-16.93c0-1.32-1.06-2.4-2.36-2.4h-20.95c-1.3,0-2.36,1.08-2.36,2.4v16.94c0,2.65-2.11,4.79-4.71,4.79h-12.24c-2.6,0-4.71-2.14-4.71-4.79v-16.92c-.01-1.33-1.06-2.4-2.37-2.4H2.36c-1.3,0-2.36,1.07-2.36,2.4v21.3c0,1.32,1.06,2.4,2.36,2.4h16.65c2.6,0,4.71,2.14,4.71,4.79v16.93c0,1.32,1.06,2.4,2.36,2.4h20.95c1.3,0,2.36-1.08,2.36-2.4v-16.94c0-2.65,2.11-4.79,4.71-4.79h12.24c2.6,0,4.71,2.14,4.71,4.79v16.93c0,1.32,1.06,2.4,2.36,2.4h20.95c1.3,0,2.36-1.08,2.36-2.4v-21.32c0-1.32-1.06-2.4-2.36-2.4h-16.65c-2.6,0-4.71-2.14-4.71-4.79h.01Z"/>
  </g>
</svg>